<?xml version="1.0" encoding="utf-8"?>
<!DOCTYPE svg PUBLIC "-//W3C//DTD SVG 1.1//EN" "http://www.w3.org/Graphics/SVG/1.1/DTD/svg11.dtd">
<svg xmlns="http://www.w3.org/2000/svg" xmlns:xlink="http://www.w3.org/1999/xlink" version="1.1" baseProfile="full" width="800.0" height="600.0" >
<defs></defs><rect width="800.0" height="600.0" style="fill:rgb(255,255,255);" /><g shape-rendering="crispEdges"> <rect x="0" y="0" width="70.0" height="600.0" style="fill:rgb(250,250,250);" /><rect x="70.0" y="0" width="730.0" height="30.0" style="fill:rgb(250,250,250);" /><rect x="70.0" y="520.0" width="730.0" height="80.0" style="fill:rgb(250,250,250);" /><rect x="715.0" y="30.0" width="85.0" height="490.0" style="fill:rgb(250,250,250);" /><rect fill="none" stroke="black" stroke-width="1.0" x="70.0" y="30.0" width="645.0" height="490.0"  /></g><rect shape-rendering="crispEdges" stroke-width="1.0" stroke="none" fill="#000000" x="735.0" y="30.0" width="20.0" height="9.607843137254902" /><rect shape-rendering="crispEdges" stroke-width="1.0" stroke="none" fill="#000000" x="735.0" y="39.6078431372549" width="20.0" height="9.607843137254902" /><rect shape-rendering="crispEdges" stroke-width="1.0" stroke="none" fill="#000000" x="735.0" y="49.21568627450981" width="20.0" height="9.607843137254902" /><rect shape-rendering="crispEdges" stroke-width="1.0" stroke="none" fill="#000000" x="735.0" y="58.82352941176471" width="20.0" height="9.607843137254902" /><rect shape-rendering="crispEdges" stroke-width="1.0" stroke="none" fill="#000000" x="735.0" y="68.43137254901961" width="20.0" height="9.607843137254902" /><rect shape-rendering="crispEdges" stroke-width="1.0" stroke="none" fill="#000000" x="735.0" y="78.0392156862745" width="20.0" height="9.607843137254902" /><rect shape-rendering="crispEdges" stroke-width="1.0" stroke="none" fill="#000000" x="735.0" y="87.64705882352942" width="20.0" height="9.607843137254902" /><rect shape-rendering="crispEdges" stroke-width="1.0" stroke="none" fill="#000000" x="735.0" y="97.25490196078432" width="20.0" height="9.607843137254902" /><rect shape-rendering="crispEdges" stroke-width="1.0" stroke="none" fill="#000000" x="735.0" y="106.86274509803921" width="20.0" height="9.607843137254902" /><rect shape-rendering="crispEdges" stroke-width="1.0" stroke="none" fill="#000000" x="735.0" y="116.47058823529413" width="20.0" height="9.607843137254902" /><rect shape-rendering="crispEdges" stroke-width="1.0" stroke="none" fill="#000000" x="735.0" y="126.07843137254902" width="20.0" height="9.607843137254902" /><rect shape-rendering="crispEdges" stroke-width="1.0" stroke="none" fill="#000000" x="735.0" y="135.68627450980392" width="20.0" height="9.607843137254902" /><rect shape-rendering="crispEdges" stroke-width="1.0" stroke="none" fill="#000000" x="735.0" y="145.29411764705884" width="20.0" height="9.607843137254902" /><rect shape-rendering="crispEdges" stroke-width="1.0" stroke="none" fill="#000000" x="735.0" y="154.9019607843137" width="20.0" height="9.607843137254902" /><rect shape-rendering="crispEdges" stroke-width="1.0" stroke="none" fill="#000000" x="735.0" y="164.50980392156865" width="20.0" height="9.607843137254902" /><rect shape-rendering="crispEdges" stroke-width="1.0" stroke="none" fill="#000000" x="735.0" y="174.11764705882354" width="20.0" height="9.607843137254902" /><rect shape-rendering="crispEdges" stroke-width="1.0" stroke="none" fill="#000000" x="735.0" y="183.72549019607843" width="20.0" height="9.607843137254902" /><rect shape-rendering="crispEdges" stroke-width="1.0" stroke="none" fill="#000000" x="735.0" y="193.33333333333331" width="20.0" height="9.607843137254902" /><rect shape-rendering="crispEdges" stroke-width="1.0" stroke="none" fill="#000000" x="735.0" y="202.94117647058826" width="20.0" height="9.607843137254902" /><rect shape-rendering="crispEdges" stroke-width="1.0" stroke="none" fill="#000000" x="735.0" y="212.54901960784315" width="20.0" height="9.607843137254902" /><rect shape-rendering="crispEdges" stroke-width="1.0" stroke="none" fill="#000000" x="735.0" y="222.15686274509804" width="20.0" height="9.607843137254902" /><rect shape-rendering="crispEdges" stroke-width="1.0" stroke="none" fill="#000000" x="735.0" y="231.76470588235293" width="20.0" height="9.607843137254902" /><rect shape-rendering="crispEdges" stroke-width="1.0" stroke="none" fill="#000000" x="735.0" y="241.37254901960785" width="20.0" height="9.607843137254902" /><rect shape-rendering="crispEdges" stroke-width="1.0" stroke="none" fill="#000000" x="735.0" y="250.98039215686276" width="20.0" height="9.607843137254902" /><rect shape-rendering="crispEdges" stroke-width="1.0" stroke="none" fill="#000000" x="735.0" y="260.5882352941177" width="20.0" height="9.607843137254902" /><rect shape-rendering="crispEdges" stroke-width="1.0" stroke="none" fill="#000000" x="735.0" y="270.19607843137254" width="20.0" height="9.607843137254902" /><rect shape-rendering="crispEdges" stroke-width="1.0" stroke="none" fill="#000000" x="735.0" y="279.8039215686274" width="20.0" height="9.607843137254902" /><rect shape-rendering="crispEdges" stroke-width="1.0" stroke="none" fill="#000000" x="735.0" y="289.4117647058824" width="20.0" height="9.607843137254902" /><rect shape-rendering="crispEdges" stroke-width="1.0" stroke="none" fill="#000000" x="735.0" y="299.0196078431373" width="20.0" height="9.607843137254902" /><rect shape-rendering="crispEdges" stroke-width="1.0" stroke="none" fill="#000000" x="735.0" y="308.62745098039215" width="20.0" height="9.607843137254902" /><rect shape-rendering="crispEdges" stroke-width="1.0" stroke="none" fill="#000000" x="735.0" y="318.2352941176471" width="20.0" height="9.607843137254902" /><rect shape-rendering="crispEdges" stroke-width="1.0" stroke="none" fill="#000000" x="735.0" y="327.84313725490193" width="20.0" height="9.607843137254902" /><rect shape-rendering="crispEdges" stroke-width="1.0" stroke="none" fill="#000000" x="735.0" y="337.45098039215685" width="20.0" height="9.607843137254902" /><rect shape-rendering="crispEdges" stroke-width="1.0" stroke="none" fill="#000000" x="735.0" y="347.05882352941177" width="20.0" height="9.607843137254902" /><rect shape-rendering="crispEdges" stroke-width="1.0" stroke="none" fill="#000000" x="735.0" y="356.66666666666663" width="20.0" height="9.607843137254902" /><rect shape-rendering="crispEdges" stroke-width="1.0" stroke="none" fill="#000000" x="735.0" y="366.27450980392155" width="20.0" height="9.607843137254902" /><rect shape-rendering="crispEdges" stroke-width="1.0" stroke="none" fill="#000000" x="735.0" y="375.8823529411765" width="20.0" height="9.607843137254902" /><rect shape-rendering="crispEdges" stroke-width="1.0" stroke="none" fill="#000000" x="735.0" y="385.4901960784314" width="20.0" height="9.607843137254902" /><rect shape-rendering="crispEdges" stroke-width="1.0" stroke="none" fill="#000000" x="735.0" y="395.0980392156863" width="20.0" height="9.607843137254902" /><rect shape-rendering="crispEdges" stroke-width="1.0" stroke="none" fill="#000000" x="735.0" y="404.70588235294116" width="20.0" height="9.607843137254902" /><rect shape-rendering="crispEdges" stroke-width="1.0" stroke="none" fill="#000000" x="735.0" y="414.3137254901961" width="20.0" height="9.607843137254902" /><rect shape-rendering="crispEdges" stroke-width="1.0" stroke="none" fill="#000000" x="735.0" y="423.921568627451" width="20.0" height="9.607843137254902" /><rect shape-rendering="crispEdges" stroke-width="1.0" stroke="none" fill="#000000" x="735.0" y="433.52941176470586" width="20.0" height="9.607843137254902" /><rect shape-rendering="crispEdges" stroke-width="1.0" stroke="none" fill="#000000" x="735.0" y="443.1372549019608" width="20.0" height="9.607843137254902" /><rect shape-rendering="crispEdges" stroke-width="1.0" stroke="none" fill="#000000" x="735.0" y="452.7450980392157" width="20.0" height="9.607843137254902" /><rect shape-rendering="crispEdges" stroke-width="1.0" stroke="none" fill="#000000" x="735.0" y="462.35294117647055" width="20.0" height="9.607843137254902" /><rect shape-rendering="crispEdges" stroke-width="1.0" stroke="none" fill="#000000" x="735.0" y="471.9607843137255" width="20.0" height="9.607843137254902" /><rect shape-rendering="crispEdges" stroke-width="1.0" stroke="none" fill="#000000" x="735.0" y="481.5686274509804" width="20.0" height="9.607843137254902" /><rect shape-rendering="crispEdges" stroke-width="1.0" stroke="none" fill="#000000" x="735.0" y="491.1764705882353" width="20.0" height="9.607843137254902" /><rect shape-rendering="crispEdges" stroke-width="1.0" stroke="none" fill="#000000" x="735.0" y="500.7843137254902" width="20.0" height="9.607843137254902" /><rect shape-rendering="crispEdges" stroke-width="1.0" stroke="none" fill="#000000" x="735.0" y="510.3921568627451" width="20.0" height="9.607843137254902" /><rect shape-rendering="crispEdges" stroke-width="1.0" stroke="black" fill="none" x="735.0" y="30.0" width="20.0" height="490.0" /><g shape-rendering="crispEdges"></g><text font-size="14.0" font-family="helvetica"  text-anchor="middle" x="392.5" y="19.0">Schedule</text><text dy="31.200000000000003" font-size="14.0" font-family="helvetica"  text-anchor="middle" x="392.5" y="520.0">X</text><text dy="4.242424242424242" transform="rotate(-90,30.0,275.0)" font-size="14.0" font-family="helvetica"  text-anchor="middle" x="30.0" y="275.0">Y</text></svg>