<?xml version="1.0" encoding="utf-8"?>
<!DOCTYPE svg PUBLIC "-//W3C//DTD SVG 1.1//EN" "http://www.w3.org/Graphics/SVG/1.1/DTD/svg11.dtd">
<svg xmlns="http://www.w3.org/2000/svg" xmlns:xlink="http://www.w3.org/1999/xlink" version="1.1" baseProfile="full" width="800.0" height="600.0" >
<defs></defs><rect width="800.0" height="600.0" style="fill:rgb(255,255,255);" /><polyline  fill="none" style="stroke-dasharray: 0.75, 1.5; stroke: black; stroke-width: 0.75" points="94.33962264150944,30.0 94.33962264150944,520.0" /><polyline  fill="none" style="stroke-dasharray: 0.75, 1.5; stroke: black; stroke-width: 0.75" points="216.0377358490566,30.0 216.0377358490566,520.0" /><polyline  fill="none" style="stroke-dasharray: 0.75, 1.5; stroke: black; stroke-width: 0.75" points="337.73584905660374,30.0 337.73584905660374,520.0" /><polyline  fill="none" style="stroke-dasharray: 0.75, 1.5; stroke: black; stroke-width: 0.75" points="459.4339622641509,30.0 459.4339622641509,520.0" /><polyline  fill="none" style="stroke-dasharray: 0.75, 1.5; stroke: black; stroke-width: 0.75" points="581.132075471698,30.0 581.132075471698,520.0" /><polyline  fill="none" style="stroke-dasharray: 0.75, 1.5; stroke: black; stroke-width: 0.75" points="702.8301886792452,30.0 702.8301886792452,520.0" /><polyline  fill="none" style="stroke-dasharray: 0.75, 1.5; stroke: black; stroke-width: 0.75" points="70.0,506.13207547169816 715.0,506.13207547169816" /><polyline  fill="none" style="stroke-dasharray: 0.75, 1.5; stroke: black; stroke-width: 0.75" points="70.0,429.0880503144654 715.0,429.0880503144654" /><polyline  fill="none" style="stroke-dasharray: 0.75, 1.5; stroke: black; stroke-width: 0.75" points="70.0,352.0440251572327 715.0,352.0440251572327" /><polyline  fill="none" style="stroke-dasharray: 0.75, 1.5; stroke: black; stroke-width: 0.75" points="70.0,275.0 715.0,275.0" /><polyline  fill="none" style="stroke-dasharray: 0.75, 1.5; stroke: black; stroke-width: 0.75" points="70.0,197.95597484276732 715.0,197.95597484276732" /><polyline  fill="none" style="stroke-dasharray: 0.75, 1.5; stroke: black; stroke-width: 0.75" points="70.0,120.91194968553458 715.0,120.91194968553458" /><polyline  fill="none" style="stroke-dasharray: 0.75, 1.5; stroke: black; stroke-width: 0.75" points="70.0,43.8679245283019 715.0,43.8679245283019" /><rect shape-rendering="crispEdges" stroke-width="0" stroke="none" fill="#35ffc9" x="453.349" y="43.8679" width="12.1698" height="154.088" />
<rect shape-rendering="crispEdges" stroke-width="0" stroke="none" fill="#0000ab" x="611.5566" y="197.9559" width="12.1698" height="154.088" />
<rect shape-rendering="crispEdges" stroke-width="0" stroke="none" fill="#f6ff08" x="355.9905" y="352.044" width="12.1698" height="154.088" />
<rect shape-rendering="crispEdges" stroke-width="0" stroke="none" fill="#ff8800" x="429.0094" y="43.8679" width="12.1698" height="154.088" />
<rect shape-rendering="crispEdges" stroke-width="0" stroke="none" fill="#a5ff59" x="234.2924" y="197.9559" width="12.1698" height="154.088" />
<rect shape-rendering="crispEdges" stroke-width="0" stroke="none" fill="#0000ab" x="575.0471" y="197.9559" width="12.1698" height="154.088" />
<rect shape-rendering="crispEdges" stroke-width="0" stroke="none" fill="#db0000" x="429.0094" y="197.9559" width="12.1698" height="154.088" />
<rect shape-rendering="crispEdges" stroke-width="0" stroke="none" fill="#db0000" x="441.1792" y="197.9559" width="12.1698" height="154.088" />
<rect shape-rendering="crispEdges" stroke-width="0" stroke="none" fill="#ff3a00" x="112.5943" y="43.8679" width="12.1698" height="154.088" />
<rect shape-rendering="crispEdges" stroke-width="0" stroke="none" fill="#28ffd6" x="307.3113" y="197.9559" width="12.1698" height="154.088" />
<rect shape-rendering="crispEdges" stroke-width="0" stroke="none" fill="#ff8c00" x="222.1226" y="43.8679" width="12.1698" height="154.088" />
<rect shape-rendering="crispEdges" stroke-width="0" stroke="none" fill="#ff2e00" x="404.6698" y="197.9559" width="12.1698" height="154.088" />
<rect shape-rendering="crispEdges" stroke-width="0" stroke="none" fill="#ff6e00" x="136.9339" y="43.8679" width="12.1698" height="154.088" />
<rect shape-rendering="crispEdges" stroke-width="0" stroke="none" fill="#e7ff17" x="161.2735" y="352.044" width="12.1698" height="154.088" />
<rect shape-rendering="crispEdges" stroke-width="0" stroke="none" fill="#0000ab" x="234.2924" y="352.044" width="12.1698" height="154.088" />
<rect shape-rendering="crispEdges" stroke-width="0" stroke="none" fill="#0000ab" x="684.5754" y="352.044" width="12.1698" height="154.088" />
<rect shape-rendering="crispEdges" stroke-width="0" stroke="none" fill="#ffd400" x="258.632" y="197.9559" width="12.1698" height="154.088" />
<rect shape-rendering="crispEdges" stroke-width="0" stroke="none" fill="#00aeff" x="307.3113" y="43.8679" width="12.1698" height="154.088" />
<rect shape-rendering="crispEdges" stroke-width="0" stroke="none" fill="#e30000" x="477.6886" y="197.9559" width="12.1698" height="154.088" />
<rect shape-rendering="crispEdges" stroke-width="0" stroke="none" fill="#a00000" x="550.7075" y="43.8679" width="12.1698" height="154.088" />
<rect shape-rendering="crispEdges" stroke-width="0" stroke="none" fill="#0000ab" x="684.5754" y="197.9559" width="12.1698" height="154.088" />
<rect shape-rendering="crispEdges" stroke-width="0" stroke="none" fill="#0000ab" x="197.783" y="197.9559" width="12.1698" height="154.088" />
<rect shape-rendering="crispEdges" stroke-width="0" stroke="none" fill="#0035ff" x="270.8018" y="352.044" width="12.1698" height="154.088" />
<rect shape-rendering="crispEdges" stroke-width="0" stroke="none" fill="#b50000" x="307.3113" y="352.044" width="12.1698" height="154.088" />
<rect shape-rendering="crispEdges" stroke-width="0" stroke="none" fill="#a00000" x="465.5188" y="43.8679" width="12.1698" height="154.088" />
<rect shape-rendering="crispEdges" stroke-width="0" stroke="none" fill="#ff6f00" x="88.2547" y="352.044" width="12.1698" height="154.088" />
<rect shape-rendering="crispEdges" stroke-width="0" stroke="none" fill="#0000ab" x="489.8584" y="352.044" width="12.1698" height="154.088" />
<rect shape-rendering="crispEdges" stroke-width="0" stroke="none" fill="#0000ab" x="270.8018" y="197.9559" width="12.1698" height="154.088" />
<rect shape-rendering="crispEdges" stroke-width="0" stroke="none" fill="#a00000" x="514.1981" y="43.8679" width="12.1698" height="154.088" />
<rect shape-rendering="crispEdges" stroke-width="0" stroke="none" fill="#0000ab" x="599.3867" y="352.044" width="12.1698" height="154.088" />
<rect shape-rendering="crispEdges" stroke-width="0" stroke="none" fill="#0000ab" x="648.066" y="197.9559" width="12.1698" height="154.088" />
<rect shape-rendering="crispEdges" stroke-width="0" stroke="none" fill="#ffa500" x="185.6132" y="43.8679" width="12.1698" height="154.088" />
<rect shape-rendering="crispEdges" stroke-width="0" stroke="none" fill="#0000ab" x="514.1981" y="197.9559" width="12.1698" height="154.088" />
<rect shape-rendering="crispEdges" stroke-width="0" stroke="none" fill="#a00000" x="526.3679" y="43.8679" width="12.1698" height="154.088" />
<rect shape-rendering="crispEdges" stroke-width="0" stroke="none" fill="#0000ab" x="550.7075" y="197.9559" width="12.1698" height="154.088" />
<rect shape-rendering="crispEdges" stroke-width="0" stroke="none" fill="#0000ab" x="611.5566" y="352.044" width="12.1698" height="154.088" />
<rect shape-rendering="crispEdges" stroke-width="0" stroke="none" fill="#ff3c00" x="112.5943" y="197.9559" width="12.1698" height="154.088" />
<rect shape-rendering="crispEdges" stroke-width="0" stroke="none" fill="#ff8100" x="404.6698" y="352.044" width="12.1698" height="154.088" />
<rect shape-rendering="crispEdges" stroke-width="0" stroke="none" fill="#0000ab" x="660.2358" y="197.9559" width="12.1698" height="154.088" />
<rect shape-rendering="crispEdges" stroke-width="0" stroke="none" fill="#9b0000" x="331.6509" y="43.8679" width="12.1698" height="154.088" />
<rect shape-rendering="crispEdges" stroke-width="0" stroke="none" fill="#ff1800" x="161.2735" y="43.8679" width="12.1698" height="154.088" />
<rect shape-rendering="crispEdges" stroke-width="0" stroke="none" fill="#e30000" x="489.8584" y="197.9559" width="12.1698" height="154.088" />
<rect shape-rendering="crispEdges" stroke-width="0" stroke="none" fill="#ff3c00" x="100.4245" y="197.9559" width="12.1698" height="154.088" />
<rect shape-rendering="crispEdges" stroke-width="0" stroke="none" fill="#0000ab" x="623.7264" y="43.8679" width="12.1698" height="154.088" />
<rect shape-rendering="crispEdges" stroke-width="0" stroke="none" fill="#ff1000" x="100.4245" y="352.044" width="12.1698" height="154.088" />
<rect shape-rendering="crispEdges" stroke-width="0" stroke="none" fill="#00bdff" x="331.6509" y="352.044" width="12.1698" height="154.088" />
<rect shape-rendering="crispEdges" stroke-width="0" stroke="none" fill="#ff6e00" x="124.7641" y="43.8679" width="12.1698" height="154.088" />
<rect shape-rendering="crispEdges" stroke-width="0" stroke="none" fill="#a00000" x="489.8584" y="43.8679" width="12.1698" height="154.088" />
<rect shape-rendering="crispEdges" stroke-width="0" stroke="none" fill="#a5ff59" x="246.4622" y="197.9559" width="12.1698" height="154.088" />
<rect shape-rendering="crispEdges" stroke-width="0" stroke="none" fill="#e3fe1b" x="258.632" y="43.8679" width="12.1698" height="154.088" />
<rect shape-rendering="crispEdges" stroke-width="0" stroke="none" fill="#fff700" x="112.5943" y="352.044" width="12.1698" height="154.088" />
<rect shape-rendering="crispEdges" stroke-width="0" stroke="none" fill="#e60000" x="149.1037" y="352.044" width="12.1698" height="154.088" />
<rect shape-rendering="crispEdges" stroke-width="0" stroke="none" fill="#0000ab" x="562.8773" y="197.9559" width="12.1698" height="154.088" />
<rect shape-rendering="crispEdges" stroke-width="0" stroke="none" fill="#ff8800" x="404.6698" y="43.8679" width="12.1698" height="154.088" />
<rect shape-rendering="crispEdges" stroke-width="0" stroke="none" fill="#ff8800" x="416.8396" y="43.8679" width="12.1698" height="154.088" />
<rect shape-rendering="crispEdges" stroke-width="0" stroke="none" fill="#0000ab" x="502.0283" y="197.9559" width="12.1698" height="154.088" />
<rect shape-rendering="crispEdges" stroke-width="0" stroke="none" fill="#ff3700" x="343.8207" y="352.044" width="12.1698" height="154.088" />
<rect shape-rendering="crispEdges" stroke-width="0" stroke="none" fill="#0000ab" x="672.4056" y="43.8679" width="12.1698" height="154.088" />
<rect shape-rendering="crispEdges" stroke-width="0" stroke="none" fill="#0000ab" x="270.8018" y="43.8679" width="12.1698" height="154.088" />
<rect shape-rendering="crispEdges" stroke-width="0" stroke="none" fill="#0000ab" x="368.1603" y="352.044" width="12.1698" height="154.088" />
<rect shape-rendering="crispEdges" stroke-width="0" stroke="none" fill="#e30000" x="453.349" y="197.9559" width="12.1698" height="154.088" />
<rect shape-rendering="crispEdges" stroke-width="0" stroke="none" fill="#ba0000" x="282.9716" y="352.044" width="12.1698" height="154.088" />
<rect shape-rendering="crispEdges" stroke-width="0" stroke="none" fill="#d30000" x="331.6509" y="197.9559" width="12.1698" height="154.088" />
<rect shape-rendering="crispEdges" stroke-width="0" stroke="none" fill="#0000ab" x="648.066" y="352.044" width="12.1698" height="154.088" />
<rect shape-rendering="crispEdges" stroke-width="0" stroke="none" fill="#0000ab" x="648.066" y="43.8679" width="12.1698" height="154.088" />
<rect shape-rendering="crispEdges" stroke-width="0" stroke="none" fill="#ff4f00" x="416.8396" y="352.044" width="12.1698" height="154.088" />
<rect shape-rendering="crispEdges" stroke-width="0" stroke="none" fill="#a50000" x="173.4433" y="43.8679" width="12.1698" height="154.088" />
<rect shape-rendering="crispEdges" stroke-width="0" stroke="none" fill="#a00000" x="587.2169" y="43.8679" width="12.1698" height="154.088" />
<rect shape-rendering="crispEdges" stroke-width="0" stroke="none" fill="#9b0000" x="319.4811" y="43.8679" width="12.1698" height="154.088" />
<rect shape-rendering="crispEdges" stroke-width="0" stroke="none" fill="#de0000" x="355.9905" y="43.8679" width="12.1698" height="154.088" />
<rect shape-rendering="crispEdges" stroke-width="0" stroke="none" fill="#ffcf00" x="246.4622" y="43.8679" width="12.1698" height="154.088" />
<rect shape-rendering="crispEdges" stroke-width="0" stroke="none" fill="#e70000" x="258.632" y="352.044" width="12.1698" height="154.088" />
<rect shape-rendering="crispEdges" stroke-width="0" stroke="none" fill="#d60000" x="282.9716" y="43.8679" width="12.1698" height="154.088" />
<rect shape-rendering="crispEdges" stroke-width="0" stroke="none" fill="#bf0000" x="161.2735" y="197.9559" width="12.1698" height="154.088" />
<rect shape-rendering="crispEdges" stroke-width="0" stroke="none" fill="#ffa500" x="209.9528" y="43.8679" width="12.1698" height="154.088" />
<rect shape-rendering="crispEdges" stroke-width="0" stroke="none" fill="#e60000" x="136.9339" y="352.044" width="12.1698" height="154.088" />
<rect shape-rendering="crispEdges" stroke-width="0" stroke="none" fill="#0000ab" x="538.5377" y="197.9559" width="12.1698" height="154.088" />
<rect shape-rendering="crispEdges" stroke-width="0" stroke="none" fill="#ffa500" x="197.783" y="43.8679" width="12.1698" height="154.088" />
<rect shape-rendering="crispEdges" stroke-width="0" stroke="none" fill="#0000ab" x="514.1981" y="352.044" width="12.1698" height="154.088" />
<rect shape-rendering="crispEdges" stroke-width="0" stroke="none" fill="#ff6500" x="136.9339" y="197.9559" width="12.1698" height="154.088" />
<rect shape-rendering="crispEdges" stroke-width="0" stroke="none" fill="#0000ab" x="587.2169" y="352.044" width="12.1698" height="154.088" />
<rect shape-rendering="crispEdges" stroke-width="0" stroke="none" fill="#0000ab" x="623.7264" y="352.044" width="12.1698" height="154.088" />
<rect shape-rendering="crispEdges" stroke-width="0" stroke="none" fill="#0000ab" x="550.7075" y="352.044" width="12.1698" height="154.088" />
<rect shape-rendering="crispEdges" stroke-width="0" stroke="none" fill="#ff2e00" x="416.8396" y="197.9559" width="12.1698" height="154.088" />
<rect shape-rendering="crispEdges" stroke-width="0" stroke="none" fill="#ff8c00" x="234.2924" y="43.8679" width="12.1698" height="154.088" />
<rect shape-rendering="crispEdges" stroke-width="0" stroke="none" fill="#0000ab" x="538.5377" y="352.044" width="12.1698" height="154.088" />
<rect shape-rendering="crispEdges" stroke-width="0" stroke="none" fill="#9c0000" x="368.1603" y="197.9559" width="12.1698" height="154.088" />
<rect shape-rendering="crispEdges" stroke-width="0" stroke="none" fill="#d50000" x="209.9528" y="352.044" width="12.1698" height="154.088" />
<rect shape-rendering="crispEdges" stroke-width="0" stroke="none" fill="#d30000" x="319.4811" y="197.9559" width="12.1698" height="154.088" />
<rect shape-rendering="crispEdges" stroke-width="0" stroke="none" fill="#ff3a00" x="100.4245" y="43.8679" width="12.1698" height="154.088" />
<rect shape-rendering="crispEdges" stroke-width="0" stroke="none" fill="#a00000" x="562.8773" y="43.8679" width="12.1698" height="154.088" />
<rect shape-rendering="crispEdges" stroke-width="0" stroke="none" fill="#0000ab" x="660.2358" y="43.8679" width="12.1698" height="154.088" />
<rect shape-rendering="crispEdges" stroke-width="0" stroke="none" fill="#ba0000" x="295.1415" y="352.044" width="12.1698" height="154.088" />
<rect shape-rendering="crispEdges" stroke-width="0" stroke="none" fill="#9c0000" x="380.3301" y="197.9559" width="12.1698" height="154.088" />
<rect shape-rendering="crispEdges" stroke-width="0" stroke="none" fill="#ff6900" x="380.3301" y="352.044" width="12.1698" height="154.088" />
<rect shape-rendering="crispEdges" stroke-width="0" stroke="none" fill="#0000ab" x="392.5" y="352.044" width="12.1698" height="154.088" />
<rect shape-rendering="crispEdges" stroke-width="0" stroke="none" fill="#a00000" x="575.0471" y="43.8679" width="12.1698" height="154.088" />
<rect shape-rendering="crispEdges" stroke-width="0" stroke="none" fill="#de0000" x="368.1603" y="43.8679" width="12.1698" height="154.088" />
<rect shape-rendering="crispEdges" stroke-width="0" stroke="none" fill="#0000ab" x="562.8773" y="352.044" width="12.1698" height="154.088" />
<rect shape-rendering="crispEdges" stroke-width="0" stroke="none" fill="#0000ab" x="392.5" y="197.9559" width="12.1698" height="154.088" />
<rect shape-rendering="crispEdges" stroke-width="0" stroke="none" fill="#a00000" x="502.0283" y="43.8679" width="12.1698" height="154.088" />
<rect shape-rendering="crispEdges" stroke-width="0" stroke="none" fill="#0000ab" x="526.3679" y="197.9559" width="12.1698" height="154.088" />
<rect shape-rendering="crispEdges" stroke-width="0" stroke="none" fill="#00daff" x="124.7641" y="197.9559" width="12.1698" height="154.088" />
<rect shape-rendering="crispEdges" stroke-width="0" stroke="none" fill="#57ffa7" x="355.9905" y="197.9559" width="12.1698" height="154.088" />
<rect shape-rendering="crispEdges" stroke-width="0" stroke="none" fill="#bf0000" x="173.4433" y="197.9559" width="12.1698" height="154.088" />
<rect shape-rendering="crispEdges" stroke-width="0" stroke="none" fill="#bb0000" x="343.8207" y="43.8679" width="12.1698" height="154.088" />
<rect shape-rendering="crispEdges" stroke-width="0" stroke="none" fill="#ff5700" x="173.4433" y="352.044" width="12.1698" height="154.088" />
<rect shape-rendering="crispEdges" stroke-width="0" stroke="none" fill="#38ffc6" x="319.4811" y="352.044" width="12.1698" height="154.088" />
<rect shape-rendering="crispEdges" stroke-width="0" stroke="none" fill="#0000ab" x="587.2169" y="197.9559" width="12.1698" height="154.088" />
<rect shape-rendering="crispEdges" stroke-width="0" stroke="none" fill="#ff5700" x="185.6132" y="352.044" width="12.1698" height="154.088" />
<rect shape-rendering="crispEdges" stroke-width="0" stroke="none" fill="#ff8800" x="392.5" y="43.8679" width="12.1698" height="154.088" />
<rect shape-rendering="crispEdges" stroke-width="0" stroke="none" fill="#ff2300" x="88.2547" y="43.8679" width="12.1698" height="154.088" />
<rect shape-rendering="crispEdges" stroke-width="0" stroke="none" fill="#a80000" x="465.5188" y="352.044" width="12.1698" height="154.088" />
<rect shape-rendering="crispEdges" stroke-width="0" stroke="none" fill="#de0000" x="380.3301" y="43.8679" width="12.1698" height="154.088" />
<rect shape-rendering="crispEdges" stroke-width="0" stroke="none" fill="#0000ab" x="623.7264" y="197.9559" width="12.1698" height="154.088" />
<rect shape-rendering="crispEdges" stroke-width="0" stroke="none" fill="#0000ab" x="635.8962" y="43.8679" width="12.1698" height="154.088" />
<rect shape-rendering="crispEdges" stroke-width="0" stroke="none" fill="#0000ab" x="660.2358" y="352.044" width="12.1698" height="154.088" />
<rect shape-rendering="crispEdges" stroke-width="0" stroke="none" fill="#0000ab" x="684.5754" y="43.8679" width="12.1698" height="154.088" />
<rect shape-rendering="crispEdges" stroke-width="0" stroke="none" fill="#fe0f00" x="185.6132" y="197.9559" width="12.1698" height="154.088" />
<rect shape-rendering="crispEdges" stroke-width="0" stroke="none" fill="#e30000" x="465.5188" y="197.9559" width="12.1698" height="154.088" />
<rect shape-rendering="crispEdges" stroke-width="0" stroke="none" fill="#a00000" x="611.5566" y="43.8679" width="12.1698" height="154.088" />
<rect shape-rendering="crispEdges" stroke-width="0" stroke="none" fill="#ffa000" x="295.1415" y="197.9559" width="12.1698" height="154.088" />
<rect shape-rendering="crispEdges" stroke-width="0" stroke="none" fill="#0000ab" x="599.3867" y="197.9559" width="12.1698" height="154.088" />
<rect shape-rendering="crispEdges" stroke-width="0" stroke="none" fill="#a00000" x="599.3867" y="43.8679" width="12.1698" height="154.088" />
<rect shape-rendering="crispEdges" stroke-width="0" stroke="none" fill="#a5ff59" x="209.9528" y="197.9559" width="12.1698" height="154.088" />
<rect shape-rendering="crispEdges" stroke-width="0" stroke="none" fill="#3dffc1" x="295.1415" y="43.8679" width="12.1698" height="154.088" />
<rect shape-rendering="crispEdges" stroke-width="0" stroke="none" fill="#0000ab" x="197.783" y="352.044" width="12.1698" height="154.088" />
<rect shape-rendering="crispEdges" stroke-width="0" stroke="none" fill="#a00000" x="538.5377" y="43.8679" width="12.1698" height="154.088" />
<rect shape-rendering="crispEdges" stroke-width="0" stroke="none" fill="#ff7200" x="282.9716" y="197.9559" width="12.1698" height="154.088" />
<rect shape-rendering="crispEdges" stroke-width="0" stroke="none" fill="#ffc300" x="88.2547" y="197.9559" width="12.1698" height="154.088" />
<rect shape-rendering="crispEdges" stroke-width="0" stroke="none" fill="#a80000" x="477.6886" y="352.044" width="12.1698" height="154.088" />
<rect shape-rendering="crispEdges" stroke-width="0" stroke="none" fill="#009eff" x="343.8207" y="197.9559" width="12.1698" height="154.088" />
<rect shape-rendering="crispEdges" stroke-width="0" stroke="none" fill="#0000ab" x="672.4056" y="352.044" width="12.1698" height="154.088" />
<rect shape-rendering="crispEdges" stroke-width="0" stroke="none" fill="#ffee00" x="441.1792" y="352.044" width="12.1698" height="154.088" />
<rect shape-rendering="crispEdges" stroke-width="0" stroke="none" fill="#8fff6f" x="429.0094" y="352.044" width="12.1698" height="154.088" />
<rect shape-rendering="crispEdges" stroke-width="0" stroke="none" fill="#0000ab" x="672.4056" y="197.9559" width="12.1698" height="154.088" />
<rect shape-rendering="crispEdges" stroke-width="0" stroke="none" fill="#a00000" x="477.6886" y="43.8679" width="12.1698" height="154.088" />
<rect shape-rendering="crispEdges" stroke-width="0" stroke="none" fill="#ff6e00" x="149.1037" y="43.8679" width="12.1698" height="154.088" />
<rect shape-rendering="crispEdges" stroke-width="0" stroke="none" fill="#0000ab" x="635.8962" y="197.9559" width="12.1698" height="154.088" />
<rect shape-rendering="crispEdges" stroke-width="0" stroke="none" fill="#a5ff59" x="222.1226" y="197.9559" width="12.1698" height="154.088" />
<rect shape-rendering="crispEdges" stroke-width="0" stroke="none" fill="#0000ab" x="575.0471" y="352.044" width="12.1698" height="154.088" />
<rect shape-rendering="crispEdges" stroke-width="0" stroke="none" fill="#0000ab" x="526.3679" y="352.044" width="12.1698" height="154.088" />
<rect shape-rendering="crispEdges" stroke-width="0" stroke="none" fill="#ffee00" x="453.349" y="352.044" width="12.1698" height="154.088" />
<rect shape-rendering="crispEdges" stroke-width="0" stroke="none" fill="#0000ab" x="635.8962" y="352.044" width="12.1698" height="154.088" />
<rect shape-rendering="crispEdges" stroke-width="0" stroke="none" fill="#ff3200" x="222.1226" y="352.044" width="12.1698" height="154.088" />
<rect shape-rendering="crispEdges" stroke-width="0" stroke="none" fill="#0000ab" x="502.0283" y="352.044" width="12.1698" height="154.088" />
<rect shape-rendering="crispEdges" stroke-width="0" stroke="none" fill="#ff0000" x="246.4622" y="352.044" width="12.1698" height="154.088" />
<rect shape-rendering="crispEdges" stroke-width="0" stroke="none" fill="#e60000" x="124.7641" y="352.044" width="12.1698" height="154.088" />
<rect shape-rendering="crispEdges" stroke-width="0" stroke="none" fill="#bf0000" x="149.1037" y="197.9559" width="12.1698" height="154.088" />
<rect shape-rendering="crispEdges" stroke-width="0" stroke="none" fill="#00b2ff" x="441.1792" y="43.8679" width="12.1698" height="154.088" />
<g shape-rendering="crispEdges"> <rect x="0" y="0" width="70.0" height="600.0" style="fill:rgb(250,250,250);" /><rect x="70.0" y="0" width="730.0" height="30.0" style="fill:rgb(250,250,250);" /><rect x="70.0" y="520.0" width="730.0" height="80.0" style="fill:rgb(250,250,250);" /><rect x="715.0" y="30.0" width="85.0" height="490.0" style="fill:rgb(250,250,250);" /><rect fill="none" stroke="black" stroke-width="1.0" x="70.0" y="30.0" width="645.0" height="490.0"  /></g><rect shape-rendering="crispEdges" stroke-width="1.0" stroke="none" fill="#800000" x="735.0" y="30.0" width="20.0" height="9.607843137254902" /><rect shape-rendering="crispEdges" stroke-width="1.0" stroke="none" fill="#920000" x="735.0" y="39.6078431372549" width="20.0" height="9.607843137254902" /><rect shape-rendering="crispEdges" stroke-width="1.0" stroke="none" fill="#a60000" x="735.0" y="49.21568627450981" width="20.0" height="9.607843137254902" /><rect shape-rendering="crispEdges" stroke-width="1.0" stroke="none" fill="#ba0000" x="735.0" y="58.82352941176471" width="20.0" height="9.607843137254902" /><rect shape-rendering="crispEdges" stroke-width="1.0" stroke="none" fill="#ce0000" x="735.0" y="68.43137254901961" width="20.0" height="9.607843137254902" /><rect shape-rendering="crispEdges" stroke-width="1.0" stroke="none" fill="#e10000" x="735.0" y="78.0392156862745" width="20.0" height="9.607843137254902" /><rect shape-rendering="crispEdges" stroke-width="1.0" stroke="none" fill="#f50000" x="735.0" y="87.64705882352942" width="20.0" height="9.607843137254902" /><rect shape-rendering="crispEdges" stroke-width="1.0" stroke="none" fill="#ff0a00" x="735.0" y="97.25490196078432" width="20.0" height="9.607843137254902" /><rect shape-rendering="crispEdges" stroke-width="1.0" stroke="none" fill="#ff1e00" x="735.0" y="106.86274509803921" width="20.0" height="9.607843137254902" /><rect shape-rendering="crispEdges" stroke-width="1.0" stroke="none" fill="#ff3100" x="735.0" y="116.47058823529413" width="20.0" height="9.607843137254902" /><rect shape-rendering="crispEdges" stroke-width="1.0" stroke="none" fill="#ff4500" x="735.0" y="126.07843137254902" width="20.0" height="9.607843137254902" /><rect shape-rendering="crispEdges" stroke-width="1.0" stroke="none" fill="#ff5900" x="735.0" y="135.68627450980392" width="20.0" height="9.607843137254902" /><rect shape-rendering="crispEdges" stroke-width="1.0" stroke="none" fill="#ff6d00" x="735.0" y="145.29411764705884" width="20.0" height="9.607843137254902" /><rect shape-rendering="crispEdges" stroke-width="1.0" stroke="none" fill="#ff8000" x="735.0" y="154.9019607843137" width="20.0" height="9.607843137254902" /><rect shape-rendering="crispEdges" stroke-width="1.0" stroke="none" fill="#ff9300" x="735.0" y="164.50980392156865" width="20.0" height="9.607843137254902" /><rect shape-rendering="crispEdges" stroke-width="1.0" stroke="none" fill="#ffa700" x="735.0" y="174.11764705882354" width="20.0" height="9.607843137254902" /><rect shape-rendering="crispEdges" stroke-width="1.0" stroke="none" fill="#ffbb00" x="735.0" y="183.72549019607843" width="20.0" height="9.607843137254902" /><rect shape-rendering="crispEdges" stroke-width="1.0" stroke="none" fill="#ffce00" x="735.0" y="193.33333333333331" width="20.0" height="9.607843137254902" /><rect shape-rendering="crispEdges" stroke-width="1.0" stroke="none" fill="#ffe200" x="735.0" y="202.94117647058826" width="20.0" height="9.607843137254902" /><rect shape-rendering="crispEdges" stroke-width="1.0" stroke="none" fill="#fff600" x="735.0" y="212.54901960784315" width="20.0" height="9.607843137254902" /><rect shape-rendering="crispEdges" stroke-width="1.0" stroke="none" fill="#f3ff0b" x="735.0" y="222.15686274509804" width="20.0" height="9.607843137254902" /><rect shape-rendering="crispEdges" stroke-width="1.0" stroke="none" fill="#dfff1f" x="735.0" y="231.76470588235293" width="20.0" height="9.607843137254902" /><rect shape-rendering="crispEdges" stroke-width="1.0" stroke="none" fill="#ccff32" x="735.0" y="241.37254901960785" width="20.0" height="9.607843137254902" /><rect shape-rendering="crispEdges" stroke-width="1.0" stroke="none" fill="#b8ff46" x="735.0" y="250.98039215686276" width="20.0" height="9.607843137254902" /><rect shape-rendering="crispEdges" stroke-width="1.0" stroke="none" fill="#a4ff5a" x="735.0" y="260.5882352941177" width="20.0" height="9.607843137254902" /><rect shape-rendering="crispEdges" stroke-width="1.0" stroke="none" fill="#90fe6e" x="735.0" y="270.19607843137254" width="20.0" height="9.607843137254902" /><rect shape-rendering="crispEdges" stroke-width="1.0" stroke="none" fill="#7eff81" x="735.0" y="279.8039215686274" width="20.0" height="9.607843137254902" /><rect shape-rendering="crispEdges" stroke-width="1.0" stroke="none" fill="#6aff94" x="735.0" y="289.4117647058824" width="20.0" height="9.607843137254902" /><rect shape-rendering="crispEdges" stroke-width="1.0" stroke="none" fill="#56ffa8" x="735.0" y="299.0196078431373" width="20.0" height="9.607843137254902" /><rect shape-rendering="crispEdges" stroke-width="1.0" stroke="none" fill="#42ffbc" x="735.0" y="308.62745098039215" width="20.0" height="9.607843137254902" /><rect shape-rendering="crispEdges" stroke-width="1.0" stroke="none" fill="#2fffcf" x="735.0" y="318.2352941176471" width="20.0" height="9.607843137254902" /><rect shape-rendering="crispEdges" stroke-width="1.0" stroke="none" fill="#1bffe3" x="735.0" y="327.84313725490193" width="20.0" height="9.607843137254902" /><rect shape-rendering="crispEdges" stroke-width="1.0" stroke="none" fill="#07fff7" x="735.0" y="337.45098039215685" width="20.0" height="9.607843137254902" /><rect shape-rendering="crispEdges" stroke-width="1.0" stroke="none" fill="#00f2ff" x="735.0" y="347.05882352941177" width="20.0" height="9.607843137254902" /><rect shape-rendering="crispEdges" stroke-width="1.0" stroke="none" fill="#00dfff" x="735.0" y="356.66666666666663" width="20.0" height="9.607843137254902" /><rect shape-rendering="crispEdges" stroke-width="1.0" stroke="none" fill="#00cbff" x="735.0" y="366.27450980392155" width="20.0" height="9.607843137254902" /><rect shape-rendering="crispEdges" stroke-width="1.0" stroke="none" fill="#00b7ff" x="735.0" y="375.8823529411765" width="20.0" height="9.607843137254902" /><rect shape-rendering="crispEdges" stroke-width="1.0" stroke="none" fill="#00a3ff" x="735.0" y="385.4901960784314" width="20.0" height="9.607843137254902" /><rect shape-rendering="crispEdges" stroke-width="1.0" stroke="none" fill="#0090ff" x="735.0" y="395.0980392156863" width="20.0" height="9.607843137254902" /><rect shape-rendering="crispEdges" stroke-width="1.0" stroke="none" fill="#007dff" x="735.0" y="404.70588235294116" width="20.0" height="9.607843137254902" /><rect shape-rendering="crispEdges" stroke-width="1.0" stroke="none" fill="#0069ff" x="735.0" y="414.3137254901961" width="20.0" height="9.607843137254902" /><rect shape-rendering="crispEdges" stroke-width="1.0" stroke="none" fill="#0055ff" x="735.0" y="423.921568627451" width="20.0" height="9.607843137254902" /><rect shape-rendering="crispEdges" stroke-width="1.0" stroke="none" fill="#0041ff" x="735.0" y="433.52941176470586" width="20.0" height="9.607843137254902" /><rect shape-rendering="crispEdges" stroke-width="1.0" stroke="none" fill="#002eff" x="735.0" y="443.1372549019608" width="20.0" height="9.607843137254902" /><rect shape-rendering="crispEdges" stroke-width="1.0" stroke="none" fill="#001aff" x="735.0" y="452.7450980392157" width="20.0" height="9.607843137254902" /><rect shape-rendering="crispEdges" stroke-width="1.0" stroke="none" fill="#0006ff" x="735.0" y="462.35294117647055" width="20.0" height="9.607843137254902" /><rect shape-rendering="crispEdges" stroke-width="1.0" stroke="none" fill="#0000f1" x="735.0" y="471.9607843137255" width="20.0" height="9.607843137254902" /><rect shape-rendering="crispEdges" stroke-width="1.0" stroke="none" fill="#0000de" x="735.0" y="481.5686274509804" width="20.0" height="9.607843137254902" /><rect shape-rendering="crispEdges" stroke-width="1.0" stroke="none" fill="#0000ca" x="735.0" y="491.1764705882353" width="20.0" height="9.607843137254902" /><rect shape-rendering="crispEdges" stroke-width="1.0" stroke="none" fill="#0000b6" x="735.0" y="500.7843137254902" width="20.0" height="9.607843137254902" /><rect shape-rendering="crispEdges" stroke-width="1.0" stroke="none" fill="#0000a2" x="735.0" y="510.3921568627451" width="20.0" height="9.607843137254902" /><rect shape-rendering="crispEdges" stroke-width="1.0" stroke="black" fill="none" x="735.0" y="30.0" width="20.0" height="490.0" /><g shape-rendering="crispEdges"><line x1="94.33962264150944" x2="94.33962264150944" y1="515.0" y2="520.0" stroke="black" stroke-width="1.0" /><text font-family="helvetica" font-size="14.0" text-anchor="middle" dy="14.200000000000001" x="94.33962264150944" y="520.0">0</text><line x1="94.33962264150944" x2="94.33962264150944" y1="30.0" y2="35.0" stroke="black" stroke-width="1.0" /><line x1="216.0377358490566" x2="216.0377358490566" y1="515.0" y2="520.0" stroke="black" stroke-width="1.0" /><text font-family="helvetica" font-size="14.0" text-anchor="middle" dy="14.200000000000001" x="216.0377358490566" y="520.0">10</text><line x1="216.0377358490566" x2="216.0377358490566" y1="30.0" y2="35.0" stroke="black" stroke-width="1.0" /><line x1="337.73584905660374" x2="337.73584905660374" y1="515.0" y2="520.0" stroke="black" stroke-width="1.0" /><text font-family="helvetica" font-size="14.0" text-anchor="middle" dy="14.200000000000001" x="337.73584905660374" y="520.0">20</text><line x1="337.73584905660374" x2="337.73584905660374" y1="30.0" y2="35.0" stroke="black" stroke-width="1.0" /><line x1="459.4339622641509" x2="459.4339622641509" y1="515.0" y2="520.0" stroke="black" stroke-width="1.0" /><text font-family="helvetica" font-size="14.0" text-anchor="middle" dy="14.200000000000001" x="459.4339622641509" y="520.0">30</text><line x1="459.4339622641509" x2="459.4339622641509" y1="30.0" y2="35.0" stroke="black" stroke-width="1.0" /><line x1="581.132075471698" x2="581.132075471698" y1="515.0" y2="520.0" stroke="black" stroke-width="1.0" /><text font-family="helvetica" font-size="14.0" text-anchor="middle" dy="14.200000000000001" x="581.132075471698" y="520.0">40</text><line x1="581.132075471698" x2="581.132075471698" y1="30.0" y2="35.0" stroke="black" stroke-width="1.0" /><line x1="702.8301886792452" x2="702.8301886792452" y1="515.0" y2="520.0" stroke="black" stroke-width="1.0" /><text font-family="helvetica" font-size="14.0" text-anchor="middle" dy="14.200000000000001" x="702.8301886792452" y="520.0">50</text><line x1="702.8301886792452" x2="702.8301886792452" y1="30.0" y2="35.0" stroke="black" stroke-width="1.0" /><line x1="70.0" x2="75.0" y1="506.13207547169816" y2="506.13207547169816" stroke="black" stroke-width="1.0" /><text font-family="helvetica" font-size="14.0" text-anchor="end" dy="4.242424242424242" x="67.0" y="506.13207547169816">-0.5</text><line x1="715.0" x2="710.0" y1="506.13207547169816" y2="506.13207547169816" stroke="black" stroke-width="1.0" /><line x1="70.0" x2="75.0" y1="429.0880503144654" y2="429.0880503144654" stroke="black" stroke-width="1.0" /><text font-family="helvetica" font-size="14.0" text-anchor="end" dy="4.242424242424242" x="67.0" y="429.0880503144654">0</text><line x1="715.0" x2="710.0" y1="429.0880503144654" y2="429.0880503144654" stroke="black" stroke-width="1.0" /><line x1="70.0" x2="75.0" y1="352.0440251572327" y2="352.0440251572327" stroke="black" stroke-width="1.0" /><text font-family="helvetica" font-size="14.0" text-anchor="end" dy="4.242424242424242" x="67.0" y="352.0440251572327">0.5</text><line x1="715.0" x2="710.0" y1="352.0440251572327" y2="352.0440251572327" stroke="black" stroke-width="1.0" /><line x1="70.0" x2="75.0" y1="275.0" y2="275.0" stroke="black" stroke-width="1.0" /><text font-family="helvetica" font-size="14.0" text-anchor="end" dy="4.242424242424242" x="67.0" y="275.0">1</text><line x1="715.0" x2="710.0" y1="275.0" y2="275.0" stroke="black" stroke-width="1.0" /><line x1="70.0" x2="75.0" y1="197.95597484276732" y2="197.95597484276732" stroke="black" stroke-width="1.0" /><text font-family="helvetica" font-size="14.0" text-anchor="end" dy="4.242424242424242" x="67.0" y="197.95597484276732">1.5</text><line x1="715.0" x2="710.0" y1="197.95597484276732" y2="197.95597484276732" stroke="black" stroke-width="1.0" /><line x1="70.0" x2="75.0" y1="120.91194968553458" y2="120.91194968553458" stroke="black" stroke-width="1.0" /><text font-family="helvetica" font-size="14.0" text-anchor="end" dy="4.242424242424242" x="67.0" y="120.91194968553458">2</text><line x1="715.0" x2="710.0" y1="120.91194968553458" y2="120.91194968553458" stroke="black" stroke-width="1.0" /><line x1="70.0" x2="75.0" y1="43.8679245283019" y2="43.8679245283019" stroke="black" stroke-width="1.0" /><text font-family="helvetica" font-size="14.0" text-anchor="end" dy="4.242424242424242" x="67.0" y="43.8679245283019">2.5</text><line x1="715.0" x2="710.0" y1="43.8679245283019" y2="43.8679245283019" stroke="black" stroke-width="1.0" /><line x1="755.0" x2="750.0" y1="505.6679548382208" y2="505.6679548382208" stroke="black" stroke-width="1.0" /><text font-family="helvetica" font-size="14.0" text-anchor="start" dy="4.242424242424242" x="758.0" y="505.6679548382208">0</text><line x1="755.0" x2="750.0" y1="412.8438281427597" y2="412.8438281427597" stroke="black" stroke-width="1.0" /><text font-family="helvetica" font-size="14.0" text-anchor="start" dy="4.242424242424242" x="758.0" y="412.8438281427597">200</text><line x1="755.0" x2="750.0" y1="320.01970144729864" y2="320.01970144729864" stroke="black" stroke-width="1.0" /><text font-family="helvetica" font-size="14.0" text-anchor="start" dy="4.242424242424242" x="758.0" y="320.01970144729864">400</text><line x1="755.0" x2="750.0" y1="227.19557475183757" y2="227.19557475183757" stroke="black" stroke-width="1.0" /><text font-family="helvetica" font-size="14.0" text-anchor="start" dy="4.242424242424242" x="758.0" y="227.19557475183757">600</text><line x1="755.0" x2="750.0" y1="134.37144805637655" y2="134.37144805637655" stroke="black" stroke-width="1.0" /><text font-family="helvetica" font-size="14.0" text-anchor="start" dy="4.242424242424242" x="758.0" y="134.37144805637655">800</text><line x1="755.0" x2="750.0" y1="41.54732136091542" y2="41.54732136091542" stroke="black" stroke-width="1.0" /><text font-family="helvetica" font-size="14.0" text-anchor="start" dy="4.242424242424242" x="758.0" y="41.54732136091542">1000</text></g><text font-size="14.0" font-family="helvetica"  text-anchor="middle" x="392.5" y="19.0">Schedule</text><text dy="31.200000000000003" font-size="14.0" font-family="helvetica"  text-anchor="middle" x="392.5" y="520.0">X</text><text dy="4.242424242424242" transform="rotate(-90,30.0,275.0)" font-size="14.0" font-family="helvetica"  text-anchor="middle" x="30.0" y="275.0">Y</text></svg>